<svg width="134" height="33" viewBox="0 0 134 33" fill="none" xmlns="http://www.w3.org/2000/svg">
<path fill-rule="evenodd" clip-rule="evenodd" d="M32.4856 18.6353C31.0353 18.6353 29.6455 18.4465 28.3162 18.069C26.9868 17.6744 25.9164 17.1681 25.1049 16.5504L26.5293 13.4102C27.3062 13.9593 28.2212 14.414 29.2743 14.7744C30.3448 15.1176 31.4238 15.2892 32.5115 15.2892C33.3402 15.2892 34.0049 15.212 34.5055 15.0575C35.0235 14.8859 35.4033 14.6543 35.645 14.3626C35.8867 14.0708 36.0076 13.7362 36.0076 13.3587C36.0076 12.8783 35.8177 12.5007 35.4378 12.2262C35.058 11.9345 34.5573 11.7028 33.9358 11.5312C33.3143 11.3425 32.6237 11.1709 31.864 11.0164C31.1217 10.8448 30.3706 10.6389 29.611 10.3987C28.8686 10.1585 28.1867 9.84959 27.5651 9.47208C26.9436 9.09457 26.4343 8.59694 26.0372 7.9792C25.6574 7.36146 25.4675 6.57211 25.4675 5.61118C25.4675 4.5816 25.7437 3.64641 26.2962 2.80559C26.8659 1.94761 27.7119 1.26981 28.8341 0.772179C29.9736 0.257393 31.3979 0 33.1071 0C34.2466 0 35.3688 0.137276 36.4737 0.411829C37.5786 0.669222 38.5541 1.06389 39.4001 1.59584L38.1052 4.76178C37.2593 4.28131 36.4133 3.92954 35.5673 3.70647C34.7213 3.46623 33.8926 3.34612 33.0812 3.34612C32.2698 3.34612 31.6051 3.44049 31.0871 3.62925C30.5692 3.818 30.198 4.06682 29.9736 4.37569C29.7491 4.6674 29.6369 5.01059 29.6369 5.40526C29.6369 5.86857 29.8268 6.24608 30.2066 6.5378C30.5865 6.81235 31.0871 7.03542 31.7087 7.20702C32.3302 7.37861 33.0121 7.55021 33.7545 7.72181C34.5142 7.8934 35.2652 8.09074 36.0076 8.31381C36.7672 8.53688 37.4578 8.83718 38.0793 9.21469C38.7009 9.5922 39.2015 10.0898 39.5814 10.7076C39.9784 11.3253 40.177 12.1061 40.177 13.0499C40.177 14.0623 39.8921 14.9889 39.3224 15.8297C38.7526 16.6705 37.898 17.3483 36.7586 17.8631C35.6364 18.3779 34.212 18.6353 32.4856 18.6353ZM4.16942 10.8105V14.9803H14.0362V18.3264H0V0.308871H13.6995V3.65499H4.16942V7.56737H12.5859V10.8105H4.16942ZM16.0657 9.47208V12.6895H23.3945V9.47208H16.0657ZM43.0437 0.308871V18.3264H47.239V13.3587H50.8905C52.5133 13.3587 53.9118 13.1013 55.0858 12.5865C56.2598 12.0546 57.1662 11.2996 57.805 10.3215C58.4437 9.34339 58.7631 8.18511 58.7631 6.84667C58.7631 5.49106 58.4437 4.32421 57.805 3.34612C57.1662 2.36802 56.2598 1.62158 55.0858 1.10679C53.9118 0.574845 52.5133 0.308871 50.8905 0.308871H43.0437ZM47.239 9.96113H50.6574C51.9522 9.96113 52.919 9.68658 53.5578 9.13747C54.1966 8.58836 54.516 7.82476 54.516 6.84667C54.516 5.85141 54.1966 5.07923 53.5578 4.53013C52.919 3.98102 51.9522 3.70647 50.6574 3.70647H47.239V9.96113ZM70.8162 18.6353C69.3832 18.6353 68.0538 18.4036 66.828 17.9403C65.6195 17.477 64.5664 16.825 63.6686 15.9841C62.7881 15.1433 62.0975 14.1566 61.5968 13.0241C61.1134 11.8916 60.8717 10.6561 60.8717 9.31765C60.8717 7.9792 61.1134 6.74371 61.5968 5.61118C62.0975 4.47865 62.7967 3.49197 63.6945 2.65115C64.5923 1.81033 65.6454 1.15827 66.8539 0.694961C68.0625 0.231653 69.3746 0 70.7903 0C72.2233 0 73.5354 0.231653 74.7266 0.694961C75.9351 1.15827 76.9797 1.81033 77.8602 2.65115C78.7579 3.49197 79.4571 4.47865 79.9578 5.61118C80.4585 6.72655 80.7088 7.96204 80.7088 9.31765C80.7088 10.6561 80.4585 11.9002 79.9578 13.0499C79.4571 14.1824 78.7579 15.1691 77.8602 16.0099C76.9797 16.8335 75.9351 17.477 74.7266 17.9403C73.5354 18.4036 72.2319 18.6353 70.8162 18.6353ZM83.8618 0.308871V18.3264H88.0571V13.3072H91.7086C91.7322 13.3072 91.7557 13.3072 91.7793 13.3071C91.7955 13.307 91.8118 13.3069 91.828 13.3068L91.9058 13.306L95.386 18.3264H99.9179L95.8684 12.5505L95.9039 12.5351C97.0779 12.0203 97.9843 11.2824 98.6231 10.3215C99.2619 9.34339 99.5813 8.18511 99.5813 6.84667C99.5813 5.49106 99.2619 4.32421 98.6231 3.34612C97.9843 2.36802 97.0779 1.62158 95.9039 1.10679C94.7299 0.574845 93.3315 0.308871 91.7086 0.308871H83.8618ZM88.0571 9.98687H91.4755C92.7704 9.98687 93.7372 9.71232 94.376 9.16321C95.0148 8.59694 95.3342 7.82476 95.3342 6.84667C95.3342 5.85141 95.0148 5.07923 94.376 4.53013C93.7372 3.98102 92.7704 3.70647 91.4755 3.70647H88.0571V9.98687ZM106.407 3.70647H100.606V0.308871H116.404V3.70647H110.603V18.3264H106.407V3.70647ZM120.321 18.069C121.651 18.4465 123.041 18.6353 124.491 18.6353C126.217 18.6353 127.642 18.3779 128.764 17.8631C129.903 17.3483 130.758 16.6705 131.328 15.8297C131.897 14.9889 132.182 14.0623 132.182 13.0499C132.182 12.1061 131.984 11.3253 131.587 10.7076C131.207 10.0898 130.706 9.5922 130.085 9.21469C129.463 8.83718 128.772 8.53688 128.013 8.31381C127.27 8.09074 126.519 7.8934 125.76 7.72181C125.017 7.55021 124.335 7.37861 123.714 7.20702C123.092 7.03542 122.592 6.81235 122.212 6.5378C121.832 6.24608 121.642 5.86857 121.642 5.40526C121.642 5.01059 121.754 4.6674 121.979 4.37569C122.203 4.06682 122.574 3.818 123.092 3.62925C123.61 3.44049 124.275 3.34612 125.086 3.34612C125.898 3.34612 126.727 3.46623 127.572 3.70647C128.418 3.92954 129.264 4.28131 130.11 4.76178L131.405 1.59584C130.559 1.06389 129.584 0.669222 128.479 0.411829C127.374 0.137276 126.252 0 125.112 0C123.403 0 121.979 0.257393 120.839 0.772179C119.717 1.26981 118.871 1.94761 118.301 2.80559C117.749 3.64641 117.473 4.5816 117.473 5.61118C117.473 6.57211 117.663 7.36146 118.042 7.9792C118.439 8.59694 118.949 9.09457 119.57 9.47208C120.192 9.84959 120.874 10.1585 121.616 10.3987C122.376 10.6389 123.127 10.8448 123.869 11.0164C124.629 11.1709 125.319 11.3425 125.941 11.5312C126.563 11.7028 127.063 11.9345 127.443 12.2262C127.823 12.5007 128.013 12.8783 128.013 13.3587C128.013 13.7362 127.892 14.0708 127.65 14.3626C127.408 14.6543 127.029 14.8859 126.511 15.0575C126.01 15.212 125.345 15.2892 124.517 15.2892C123.429 15.2892 122.35 15.1176 121.28 14.7744C120.226 14.414 119.311 13.9593 118.534 13.4102L117.11 16.5504C117.922 17.1681 118.992 17.6744 120.321 18.069ZM63.6326 12.0958V6.94797H66.2062C66.8684 6.94797 67.365 7.07054 67.6962 7.31568C68.0323 7.56082 68.2003 7.8844 68.2003 8.28642C68.2003 8.55607 68.1326 8.7914 67.9972 8.99241C67.8746 9.16989 67.7109 9.31123 67.5061 9.41643C67.5557 9.43261 67.604 9.45061 67.651 9.47043C67.9069 9.57339 68.105 9.72782 68.2455 9.93374C68.391 10.1397 68.4637 10.3921 68.4637 10.6912C68.4637 11.1325 68.2856 11.4781 67.9294 11.7281C67.5732 11.9733 67.049 12.0958 66.3567 12.0958H63.6326ZM64.8442 11.1986H66.2664C66.5825 11.1986 66.8207 11.1496 66.9813 11.0516C67.1468 10.9486 67.2296 10.7868 67.2296 10.5662C67.2296 10.3505 67.1468 10.1911 66.9813 10.0882C66.8207 9.98032 66.5825 9.92639 66.2664 9.92639H64.8442V11.1986ZM64.8442 7.84517V9.0586H66.0557C66.3517 9.0586 66.5774 9.00957 66.733 8.91152C66.8935 8.80856 66.9737 8.65413 66.9737 8.44821C66.9737 8.2472 66.8935 8.09767 66.733 7.99961C66.5774 7.89665 66.3517 7.84517 66.0557 7.84517H64.8442ZM70.5982 11.1398V9.94845H73.0438V9.02183H70.5982V7.90401H73.3674V6.94797H69.3866V12.0958H73.4652V11.1398H70.5982ZM75.5263 7.91872V12.0958H76.7453V7.91872H78.4309V6.94797H73.8407V7.91872H75.5263Z" fill="white"/>
<path d="M0 31.9731L2.36843 26.8018H2.90872L5.27715 31.9731H4.69985L2.52385 27.1194H2.74589L0.569903 31.9731H0ZM0.932568 30.5916L1.0954 30.1484H4.10774L4.27057 30.5916H0.932568Z" fill="white"/>
<path d="M12.5121 31.9731V26.8018H14.4512C14.8904 26.8018 15.2678 26.8732 15.5836 27.016C15.8994 27.1539 16.1412 27.3558 16.3089 27.6218C16.4816 27.8828 16.568 28.2005 16.568 28.5748C16.568 28.9393 16.4816 29.2545 16.3089 29.5204C16.1412 29.7815 15.8994 29.9834 15.5836 30.1262C15.2678 30.269 14.8904 30.3405 14.4512 30.3405H12.8155L13.0598 30.0819V31.9731H12.5121ZM13.0598 30.1262L12.8155 29.8603H14.4364C14.9545 29.8603 15.3468 29.7494 15.6132 29.5278C15.8846 29.3013 16.0203 28.9836 16.0203 28.5748C16.0203 28.1611 15.8846 27.841 15.6132 27.6144C15.3468 27.3878 14.9545 27.2746 14.4364 27.2746H12.8155L13.0598 27.016V30.1262Z" fill="white"/>
<path d="M18.8835 31.9731L21.2519 26.8018H21.7922L24.1607 31.9731H23.5834L21.4074 27.1194H21.6294L19.4534 31.9731H18.8835ZM19.8161 30.5916L19.9789 30.1484H22.9913L23.1541 30.5916H19.8161Z" fill="white"/>
<path d="M27.2381 31.9731V26.8018H27.7858V31.9731H27.2381Z" fill="white"/>
<path d="M30.974 31.9731L33.0982 29.1067V29.5278L31.0998 26.8018H31.7289L33.409 29.0772L33.1648 29.0846L34.8449 26.8018H35.437L33.4608 29.4909V29.1067L35.5776 31.9731H34.9411L33.15 29.5426H33.3794L31.6031 31.9731H30.974Z" fill="white"/>
<path d="M37.702 31.9731L40.0704 26.8018H40.6107L42.9791 31.9731H42.4018L40.2258 27.1194H40.4479L38.2719 31.9731H37.702ZM38.6345 30.5916L38.7974 30.1484H41.8097L41.9725 30.5916H38.6345ZM40.8475 26.3363C40.7341 26.3363 40.6329 26.3117 40.5441 26.2625C40.4553 26.2132 40.3739 26.1566 40.2998 26.0925C40.2308 26.0236 40.1617 25.9645 40.0926 25.9152C40.0235 25.8611 39.952 25.834 39.878 25.834C39.7645 25.834 39.6732 25.8758 39.6041 25.9596C39.54 26.0433 39.503 26.159 39.4931 26.3068H39.1748C39.1847 26.0605 39.2489 25.8635 39.3673 25.7158C39.4906 25.568 39.6485 25.4941 39.841 25.4941C39.9545 25.4941 40.0556 25.5212 40.1444 25.5754C40.2382 25.6247 40.3196 25.6838 40.3887 25.7527C40.4627 25.8167 40.5318 25.8734 40.5959 25.9226C40.665 25.9719 40.7365 25.9965 40.8105 25.9965C40.924 25.9965 41.0153 25.9571 41.0844 25.8783C41.1535 25.7946 41.1905 25.6813 41.1954 25.5385H41.5137C41.5087 25.7749 41.4446 25.967 41.3212 26.1147C41.1979 26.2625 41.04 26.3363 40.8475 26.3363Z" fill="white"/>
<path d="M48.2491 32.0175C47.8593 32.0175 47.4966 31.9534 47.1611 31.8254C46.8305 31.6924 46.5419 31.5077 46.2952 31.2713C46.0534 31.03 45.8634 30.7517 45.7253 30.4365C45.592 30.1164 45.5254 29.7667 45.5254 29.3874C45.5254 29.0082 45.592 28.661 45.7253 28.3458C45.8634 28.0257 46.0534 27.7474 46.2952 27.511C46.5419 27.2696 46.8305 27.085 47.1611 26.9569C47.4917 26.8239 47.8544 26.7574 48.2491 26.7574C48.6389 26.7574 48.9991 26.8239 49.3297 26.9569C49.6603 27.085 49.9465 27.2672 50.1883 27.5036C50.435 27.74 50.6249 28.0183 50.7582 28.3384C50.8963 28.6585 50.9654 29.0082 50.9654 29.3874C50.9654 29.7667 50.8963 30.1164 50.7582 30.4365C50.6249 30.7566 50.435 31.0349 50.1883 31.2713C49.9465 31.5077 49.6603 31.6924 49.3297 31.8254C48.9991 31.9534 48.6389 32.0175 48.2491 32.0175ZM48.2491 31.5299C48.56 31.5299 48.8462 31.4782 49.1077 31.3747C49.3741 31.2664 49.6036 31.1162 49.796 30.9241C49.9934 30.7271 50.1463 30.5005 50.2549 30.2444C50.3634 29.9834 50.4177 29.6977 50.4177 29.3874C50.4177 29.0772 50.3634 28.794 50.2549 28.5379C50.1463 28.2768 49.9934 28.0503 49.796 27.8582C49.6036 27.6612 49.3741 27.511 49.1077 27.4075C48.8462 27.2992 48.56 27.245 48.2491 27.245C47.9383 27.245 47.6496 27.2992 47.3832 27.4075C47.1167 27.511 46.8848 27.6612 46.6874 27.8582C46.495 28.0503 46.342 28.2768 46.2285 28.5379C46.12 28.794 46.0657 29.0772 46.0657 29.3874C46.0657 29.6928 46.12 29.976 46.2285 30.237C46.342 30.4981 46.495 30.7271 46.6874 30.9241C46.8848 31.1162 47.1167 31.2664 47.3832 31.3747C47.6496 31.4782 47.9383 31.5299 48.2491 31.5299Z" fill="white"/>
<path d="M60.8357 32.0175C60.4459 32.0175 60.0832 31.9534 59.7477 31.8254C59.4171 31.6924 59.1285 31.5077 58.8818 31.2713C58.64 31.03 58.45 30.7517 58.3119 30.4365C58.1786 30.1164 58.112 29.7667 58.112 29.3874C58.112 29.0082 58.1786 28.661 58.3119 28.3458C58.45 28.0257 58.64 27.7474 58.8818 27.511C59.1285 27.2696 59.4171 27.085 59.7477 26.9569C60.0783 26.8239 60.441 26.7574 60.8357 26.7574C61.2255 26.7574 61.5857 26.8239 61.9163 26.9569C62.2469 27.085 62.5331 27.2672 62.7749 27.5036C63.0216 27.74 63.2115 28.0183 63.3448 28.3384C63.4829 28.6585 63.552 29.0082 63.552 29.3874C63.552 29.7667 63.4829 30.1164 63.3448 30.4365C63.2115 30.7566 63.0216 31.0349 62.7749 31.2713C62.5331 31.5077 62.2469 31.6924 61.9163 31.8254C61.5857 31.9534 61.2255 32.0175 60.8357 32.0175ZM62.5306 33C62.3727 33 62.2198 32.9803 62.0717 32.9409C61.9237 32.9015 61.7732 32.8375 61.6203 32.7488C61.4722 32.6651 61.3193 32.5543 61.1614 32.4164C61.0035 32.2785 60.8308 32.111 60.6433 31.914L61.2428 31.7663C61.3957 31.9485 61.5438 32.0987 61.6869 32.2169C61.8349 32.3351 61.978 32.4213 62.1161 32.4755C62.2592 32.5346 62.3999 32.5641 62.538 32.5641C62.9229 32.5641 63.251 32.4065 63.5224 32.0913L63.7888 32.409C63.4632 32.803 63.0438 33 62.5306 33ZM60.8357 31.5299C61.1466 31.5299 61.4328 31.4782 61.6943 31.3747C61.9607 31.2664 62.1902 31.1137 62.3826 30.9167C62.58 30.7197 62.7329 30.4931 62.8415 30.237C62.95 29.976 63.0043 29.6928 63.0043 29.3874C63.0043 29.0772 62.95 28.794 62.8415 28.5379C62.7329 28.2768 62.58 28.0503 62.3826 27.8582C62.1902 27.6612 61.9607 27.511 61.6943 27.4075C61.4328 27.2992 61.1466 27.245 60.8357 27.245C60.5249 27.245 60.2362 27.2992 59.9698 27.4075C59.7033 27.511 59.4714 27.6612 59.274 27.8582C59.0816 28.0503 58.9286 28.2768 58.8151 28.5379C58.7066 28.794 58.6523 29.0772 58.6523 29.3874C58.6523 29.6928 58.7066 29.976 58.8151 30.237C58.9286 30.4931 59.0816 30.7197 59.274 30.9167C59.4714 31.1137 59.7033 31.2664 59.9698 31.3747C60.2362 31.4782 60.5249 31.5299 60.8357 31.5299Z" fill="white"/>
<path d="M69.0872 32.0175C68.426 32.0175 67.9055 31.8278 67.5255 31.4486C67.1456 31.0694 66.9556 30.5079 66.9556 29.7642V26.8018H67.5033V29.7421C67.5033 30.3528 67.6415 30.8034 67.9178 31.094C68.1941 31.3846 68.5839 31.5299 69.0872 31.5299C69.5954 31.5299 69.9877 31.3846 70.264 31.094C70.5403 30.8034 70.6785 30.3528 70.6785 29.7421V26.8018H71.2114V29.7642C71.2114 30.5079 71.0214 31.0694 70.6415 31.4486C70.2665 31.8278 69.7484 32.0175 69.0872 32.0175Z" fill="white"/>
<path d="M75.5707 29.1141H78.3092V29.5795H75.5707V29.1141ZM75.6299 31.5003H78.7459V31.9731H75.0822V26.8018H78.6349V27.2746H75.6299V31.5003Z" fill="white"/>
<path d="M86.4112 31.9731V26.8018H86.8627L90.4375 31.2935H90.2007V26.8018H90.741V31.9731H90.2895L86.722 27.4814H86.9589V31.9731H86.4112Z" fill="white"/>
<path d="M96.9172 32.0175C96.5274 32.0175 96.1647 31.9534 95.8292 31.8254C95.4986 31.6924 95.21 31.5077 94.9632 31.2713C94.7215 31.03 94.5315 30.7517 94.3933 30.4365C94.2601 30.1164 94.1935 29.7667 94.1935 29.3874C94.1935 29.0082 94.2601 28.661 94.3933 28.3458C94.5315 28.0257 94.7215 27.7474 94.9632 27.511C95.21 27.2696 95.4986 27.085 95.8292 26.9569C96.1598 26.8239 96.5225 26.7574 96.9172 26.7574C97.307 26.7574 97.6672 26.8239 97.9978 26.9569C98.3284 27.085 98.6146 27.2672 98.8564 27.5036C99.1031 27.74 99.293 28.0183 99.4262 28.3384C99.5644 28.6585 99.6335 29.0082 99.6335 29.3874C99.6335 29.7667 99.5644 30.1164 99.4262 30.4365C99.293 30.7566 99.1031 31.0349 98.8564 31.2713C98.6146 31.5077 98.3284 31.6924 97.9978 31.8254C97.6672 31.9534 97.307 32.0175 96.9172 32.0175ZM96.9172 31.5299C97.2281 31.5299 97.5142 31.4782 97.7758 31.3747C98.0422 31.2664 98.2716 31.1162 98.4641 30.9241C98.6614 30.7271 98.8144 30.5005 98.923 30.2444C99.0315 29.9834 99.0858 29.6977 99.0858 29.3874C99.0858 29.0772 99.0315 28.794 98.923 28.5379C98.8144 28.2768 98.6614 28.0503 98.4641 27.8582C98.2716 27.6612 98.0422 27.511 97.7758 27.4075C97.5142 27.2992 97.2281 27.245 96.9172 27.245C96.6063 27.245 96.3177 27.2992 96.0512 27.4075C95.7848 27.511 95.5529 27.6612 95.3555 27.8582C95.1631 28.0503 95.0101 28.2768 94.8966 28.5379C94.7881 28.794 94.7338 29.0772 94.7338 29.3874C94.7338 29.6928 94.7881 29.976 94.8966 30.237C95.0101 30.4981 95.1631 30.7271 95.3555 30.9241C95.5529 31.1162 95.7848 31.2664 96.0512 31.3747C96.3177 31.4782 96.6063 31.5299 96.9172 31.5299Z" fill="white"/>
<path d="M104.51 32.0175C104.125 32.0175 103.755 31.9559 103.4 31.8328C103.049 31.7047 102.778 31.5422 102.586 31.3452L102.8 30.9241C102.983 31.1014 103.227 31.2516 103.533 31.3747C103.844 31.4929 104.17 31.552 104.51 31.552C104.836 31.552 105.1 31.5126 105.302 31.4338C105.509 31.3501 105.66 31.2393 105.753 31.1014C105.852 30.9635 105.901 30.8108 105.901 30.6434C105.901 30.4414 105.842 30.2789 105.724 30.1558C105.61 30.0326 105.46 29.9366 105.272 29.8676C105.085 29.7938 104.878 29.7297 104.651 29.6756C104.424 29.6214 104.197 29.5648 103.97 29.5057C103.743 29.4416 103.533 29.3579 103.341 29.2545C103.153 29.151 103 29.0156 102.882 28.8481C102.768 28.6758 102.711 28.4517 102.711 28.1759C102.711 27.9198 102.778 27.6858 102.911 27.474C103.049 27.2573 103.259 27.085 103.54 26.9569C103.822 26.8239 104.182 26.7574 104.621 26.7574C104.912 26.7574 105.201 26.7993 105.487 26.883C105.773 26.9618 106.02 27.0726 106.227 27.2155L106.042 27.6513C105.82 27.5036 105.583 27.3952 105.332 27.3263C105.085 27.2573 104.846 27.2229 104.614 27.2229C104.303 27.2229 104.046 27.2647 103.844 27.3484C103.642 27.4322 103.491 27.5455 103.392 27.6883C103.299 27.8262 103.252 27.9838 103.252 28.1611C103.252 28.363 103.309 28.5256 103.422 28.6487C103.54 28.7718 103.693 28.8678 103.881 28.9368C104.073 29.0058 104.283 29.0673 104.51 29.1215C104.737 29.1757 104.961 29.2348 105.183 29.2988C105.41 29.3628 105.618 29.4465 105.805 29.55C105.998 29.6485 106.151 29.7815 106.264 29.9489C106.383 30.1164 106.442 30.3355 106.442 30.6064C106.442 30.8576 106.373 31.0915 106.234 31.3082C106.096 31.52 105.884 31.6924 105.598 31.8254C105.317 31.9534 104.954 32.0175 104.51 32.0175Z" fill="white"/>
<path d="M116.1 32.0175C115.439 32.0175 114.918 31.8278 114.538 31.4486C114.159 31.0694 113.969 30.5079 113.969 29.7642V26.8018H114.516V29.7421C114.516 30.3528 114.654 30.8034 114.931 31.094C115.207 31.3846 115.597 31.5299 116.1 31.5299C116.608 31.5299 117.001 31.3846 117.277 31.094C117.553 30.8034 117.691 30.3528 117.691 29.7421V26.8018H118.224V29.7642C118.224 30.5079 118.034 31.0694 117.654 31.4486C117.279 31.8278 116.761 32.0175 116.1 32.0175Z" fill="white"/>
<path d="M122.095 31.9731V26.8018H122.547L126.121 31.2935H125.885V26.8018H126.425V31.9731H125.973L122.406 27.4814H122.643V31.9731H122.095Z" fill="white"/>
<path d="M130.825 29.1141H133.563V29.5795H130.825V29.1141ZM130.884 31.5003H134V31.9731H130.336V26.8018H133.889V27.2746H130.884V31.5003Z" fill="white"/>
</svg>
